<svg viewBox="0 0 1000 400" xmlns="http://www.w3.org/2000/svg">
  <!-- Background -->
  <rect width="1000" height="400" fill="#f8f9fa"/>
  
  <!-- Title -->
  <text x="500" y="30" text-anchor="middle" font-size="20" font-weight="bold" fill="#1a237e">Oracle GoldenGateクラシックExtractアーキテクチャ</text>
  
  <!-- Arrow definitions -->
  <defs>
    <marker id="arrowhead" markerWidth="10" markerHeight="10" refX="9" refY="5" orient="auto">
      <polygon points="0 0, 10 5, 0 10" fill="#666"/>
    </marker>
  </defs>
  
  <!-- Oracle Database (RAC Environment) Box -->
  <g id="oracle-database">
    <rect x="50" y="80" width="250" height="250" fill="#e3f2fd" stroke="#1976d2" stroke-width="2" rx="10"/>
    <text x="175" y="105" text-anchor="middle" font-size="16" font-weight="bold" fill="#1976d2">Oracleデータベース</text>
    <text x="175" y="125" text-anchor="middle" font-size="14" fill="#666">(RAC環境)</text>
    
    <!-- Node 1 -->
    <rect x="70" y="150" width="100" height="60" fill="#bbdefb" stroke="#1565c0" stroke-width="1.5" rx="5"/>
    <text x="120" y="185" text-anchor="middle" font-size="14" font-weight="bold" fill="#0d47a1">ノード1</text>
    
    <!-- Node 2 -->
    <rect x="180" y="150" width="100" height="60" fill="#bbdefb" stroke="#1565c0" stroke-width="1.5" rx="5"/>
    <text x="230" y="185" text-anchor="middle" font-size="14" font-weight="bold" fill="#0d47a1">ノード2</text>
  </g>
  
  <!-- Redo Log Files -->
  <g id="redo-logs">
    <!-- Redo Thread 1 -->
    <g transform="translate(120, 240)">
      <rect x="-30" y="0" width="60" height="40" fill="#fff3e0" stroke="#ef6c00" stroke-width="1.5" rx="3"/>
      <rect x="-25" y="5" width="50" height="3" fill="#f57c00"/>
      <rect x="-25" y="12" width="50" height="3" fill="#f57c00"/>
      <rect x="-25" y="19" width="50" height="3" fill="#f57c00"/>
      <rect x="-25" y="26" width="50" height="3" fill="#f57c00"/>
      <text x="0" y="55" text-anchor="middle" font-size="12" fill="#333">Redoスレッド1</text>
    </g>
    
    <!-- Redo Thread 2 -->
    <g transform="translate(230, 240)">
      <rect x="-30" y="0" width="60" height="40" fill="#fff3e0" stroke="#ef6c00" stroke-width="1.5" rx="3"/>
      <rect x="-25" y="5" width="50" height="3" fill="#f57c00"/>
      <rect x="-25" y="12" width="50" height="3" fill="#f57c00"/>
      <rect x="-25" y="19" width="50" height="3" fill="#f57c00"/>
      <rect x="-25" y="26" width="50" height="3" fill="#f57c00"/>
      <text x="0" y="55" text-anchor="middle" font-size="12" fill="#333">Redoスレッド2</text>
    </g>
  </g>
  
  <!-- GoldenGate Classic Extract Process -->
  <g id="classic-extract">
    <rect x="400" y="120" width="280" height="170" fill="#e8f5e9" stroke="#2e7d32" stroke-width="2" rx="10"/>
    <text x="540" y="145" text-anchor="middle" font-size="16" font-weight="bold" fill="#1b5e20">GoldenGateクラシックExtractプロセス</text>
    
    <!-- Process details -->
    <text x="540" y="190" text-anchor="middle" font-size="14" fill="#333">ログを直接読み込み、スレッドをマージ</text>
    
    <!-- Lock icon to signify contention -->
    <g transform="translate(520, 210)">
      <rect x="0" y="10" width="40" height="30" fill="#ffcdd2" stroke="#c62828" stroke-width="2" rx="3"/>
      <path d="M10,10 L10,5 Q10,0 15,0 L25,0 Q30,0 30,5 L30,10" fill="none" stroke="#c62828" stroke-width="2"/>
      <circle cx="20" cy="20" r="3" fill="#c62828"/>
      <path d="M20,22 L20,28" stroke="#c62828" stroke-width="2"/>
    </g>
    <text x="540" y="265" text-anchor="middle" font-size="12" fill="#c62828" font-style="italic">ロック競合</text>
  </g>
  
  <!-- Trail File -->
  <g id="trail-file" transform="translate(820, 180)">
    <ellipse cx="0" cy="0" rx="40" ry="15" fill="#fce4ec" stroke="#c2185b" stroke-width="2"/>
    <rect x="-40" y="0" width="80" height="60" fill="#fce4ec" stroke="#c2185b" stroke-width="2"/>
    <ellipse cx="0" cy="60" rx="40" ry="15" fill="#fce4ec" stroke="#c2185b" stroke-width="2"/>
    <text x="0" y="85" text-anchor="middle" font-size="14" font-weight="bold" fill="#333">トレイルファイル</text>
  </g>
  
  <!-- Dotted arrows from Redo Threads to Classic Extract -->
  <line x1="150" y1="260" x2="400" y2="205" stroke="#666" stroke-width="2" stroke-dasharray="5,5" marker-end="url(#arrowhead)"/>
  <line x1="260" y1="260" x2="400" y2="205" stroke="#666" stroke-width="2" stroke-dasharray="5,5" marker-end="url(#arrowhead)"/>
  
  <!-- Solid arrow from Classic Extract to Trail File -->
  <line x1="680" y1="205" x2="780" y2="205" stroke="#333" stroke-width="3" marker-end="url(#arrowhead)"/>
  
  <!-- Labels for arrows -->
  <text x="280" y="220" text-anchor="middle" font-size="12" fill="#666" transform="rotate(-20 280,220)">直接読み取り</text>
  <text x="330" y="245" text-anchor="middle" font-size="12" fill="#666" transform="rotate(-10 330,245)">直接読み取り</text>
  <text x="730" y="200" text-anchor="middle" font-size="12" fill="#333">書き込み</text>
</svg>