 <svg viewBox="0 0 700 700" xmlns="http://www.w3.org/2000/svg">
  <defs>
    <linearGradient id="dbGrad" x1="0%" y1="0%" x2="0%" y2="100%">
      <stop offset="0%" style="stop-color:#5A9FD4;stop-opacity:1" />
      <stop offset="100%" style="stop-color:#306998;stop-opacity:1" />
    </linearGradient>
    <linearGradient id="processGrad" x1="0%" y1="0%" x2="0%" y2="100%">
      <stop offset="0%" style="stop-color:#7B7B7B;stop-opacity:1" />
      <stop offset="100%" style="stop-color:#4A4A4A;stop-opacity:1" />
    </linearGradient>
    <linearGradient id="trailGrad" x1="0%" y1="0%" x2="0%" y2="100%">
      <stop offset="0%" style="stop-color:#8E8E8E;stop-opacity:1" />
      <stop offset="100%" style="stop-color:#5E5E5E;stop-opacity:1" />
    </linearGradient>
    <radialGradient id="cloudGrad">
      <stop offset="0%" style="stop-color:#E8E8E8;stop-opacity:1" />
      <stop offset="100%" style="stop-color:#CCCCCC;stop-opacity:1" />
    </radialGradient>
    <marker id="arrowRed" markerWidth="10" markerHeight="7" refX="9" refY="3.5" orient="auto">
      <polygon points="0 0, 10 3.5, 0 7" fill="#D9534F" />
    </marker>
    <marker id="arrowGray" markerWidth="10" markerHeight="7" refX="9" refY="3.5" orient="auto">
      <polygon points="0 0, 10 3.5, 0 7" fill="#666" />
    </marker>
  </defs>
  <text x="350" y="40" text-anchor="middle" font-family="Arial, sans-serif" font-size="24" font-weight="bold" fill="#333">
    OGGアーキテクチャ：データポンプなし
  </text>
  <g id="withoutDataPump">
    <text x="350" y="100" text-anchor="middle" font-family="Arial, sans-serif" font-size="20" font-weight="bold" fill="#D9534F">
      ❌ Data Pumpなし（脆弱なアーキテクチャ）
    </text>
    <g transform="translate(100, 200)">
      <ellipse cx="50" cy="0" rx="50" ry="20" fill="url(#dbGrad)" stroke="#306998" stroke-width="2"/>
      <rect x="0" y="0" width="100" height="60" fill="url(#dbGrad)" stroke="none"/>
      <ellipse cx="50" cy="60" rx="50" ry="20" fill="url(#dbGrad)" stroke="#306998" stroke-width="2"/>
      <path d="M 0 0 L 0 60" stroke="#306998" stroke-width="2" fill="none"/>
      <path d="M 100 0 L 100 60" stroke="#306998" stroke-width="2" fill="none"/>
      <text x="50" y="35" text-anchor="middle" font-family="Arial, sans-serif" font-size="14" font-weight="bold" fill="white">
        ソースデータベース
      </text>
    </g>
    <line x1="210" y1="230" x2="280" y2="230" stroke="#666" stroke-width="2" marker-end="url(#arrowGray)"/>
    <rect x="290" y="200" width="120" height="60" rx="5" fill="url(#processGrad)" stroke="#4A4A4A" stroke-width="2"/>
    <text x="350" y="225" text-anchor="middle" font-family="Arial, sans-serif" font-size="14" font-weight="bold" fill="white">
      プライマリ
    </text>
    <text x="350" y="245" text-anchor="middle" font-family="Arial, sans-serif" font-size="14" font-weight="bold" fill="white">
      抽出（エクストラクト）
    </text>
    <g transform="translate(450, 300)">
      <path d="M 30 40 C 10 40, 0 25, 15 20 C 5 20, 5 5, 20 5 C 25 0, 40 0, 45 5 C 60 5, 65 15, 55 20 C 70 20, 70 35, 50 40 Z" 
            fill="url(#cloudGrad)" stroke="#999" stroke-width="2"/>
      <text x="35" y="28" text-anchor="middle" font-family="Arial, sans-serif" font-size="12" fill="#666">
        ネットワーク
      </text>
    </g>
    <path d="M 420 230 Q 450 210, 480 230 T 540 230 Q 570 250, 600 230" 
          stroke="#D9534F" stroke-width="3" fill="none" marker-end="url(#arrowRed)" stroke-dasharray="5,5"/>
    <g transform="translate(470, 180)">
      <path d="M 20 5 L 35 30 L 5 30 Z" fill="#F0AD4E" stroke="#EC971F" stroke-width="2"/>
      <text x="20" y="25" text-anchor="middle" font-family="Arial, sans-serif" font-size="16" font-weight="bold" fill="#333">！</text>
      <text x="20" y="45" text-anchor="middle" font-family="Arial, sans-serif" font-size="10" fill="#666">脆弱</text>
    </g>
    <text x="480" y="280" text-anchor="middle" font-family="Arial, sans-serif" font-size="12" font-weight="bold" fill="#D9534F">
      キャプチャ＋ネットワークI/O結合
    </text>
    <g transform="translate(550, 200)">
      <ellipse cx="50" cy="0" rx="40" ry="15" fill="url(#trailGrad)" stroke="#5E5E5E" stroke-width="2"/>
      <rect x="10" y="0" width="80" height="50" fill="url(#trailGrad)" stroke="none"/>
      <ellipse cx="50" cy="50" rx="40" ry="15" fill="url(#trailGrad)" stroke="#5E5E5E" stroke-width="2"/>
      <path d="M 10 0 L 10 50" stroke="#5E5E5E" stroke-width="2" fill="none"/>
      <path d="M 90 0 L 90 50" stroke="#5E5E5E" stroke-width="2" fill="none"/>
      <text x="50" y="20" text-anchor="middle" font-family="Arial, sans-serif" font-size="12" font-weight="bold" fill="white">
        リモート
      </text>
      <text x="50" y="35" text-anchor="middle" font-family="Arial, sans-serif" font-size="12" font-weight="bold" fill="white">
        トレイルファイル
      </text>
    </g>
    <g transform="translate(200, 400)">
      <rect x="0" y="0" width="300" height="120" rx="10" fill="#FFF5F5" stroke="#D9534F" stroke-width="2" stroke-dasharray="5,5"/>
      <text x="150" y="25" text-anchor="middle" font-family="Arial, sans-serif" font-size="14" font-weight="bold" fill="#D9534F">
        リスク：
      </text>
      <text x="10" y="50" font-family="Arial, sans-serif" font-size="12" fill="#666">
        ・ネットワーク障害でキャプチャプロセス停止
      </text>
      <text x="10" y="70" font-family="Arial, sans-serif" font-size="12" fill="#666">
        ・ローカルからの再起動不可
      </text>
      <text x="10" y="90" font-family="Arial, sans-serif" font-size="12" fill="#666">
        ・単一障害点
      </text>
      <text x="10" y="110" font-family="Arial, sans-serif" font-size="12" fill="#666">
        ・パフォーマンスボトルネック
      </text>
    </g>
  </g>
</svg>
