<svg viewBox="0 0 1200 700" xmlns="http://www.w3.org/2000/svg">
  <defs>
    <!-- Gradients -->
    <linearGradient id="blueGradient" x1="0%" y1="0%" x2="100%" y2="100%">
      <stop offset="0%" style="stop-color:#1e3a8a;stop-opacity:1" />
      <stop offset="100%" style="stop-color:#3b82f6;stop-opacity:1" />
    </linearGradient>
    
    <linearGradient id="greenGradient" x1="0%" y1="0%" x2="100%" y2="100%">
      <stop offset="0%" style="stop-color:#10b981;stop-opacity:1" />
      <stop offset="100%" style="stop-color:#34d399;stop-opacity:1" />
    </linearGradient>
    
    <radialGradient id="glowGradient">
      <stop offset="0%" style="stop-color:#60a5fa;stop-opacity:0.3" />
      <stop offset="70%" style="stop-color:#3b82f6;stop-opacity:0.1" />
      <stop offset="100%" style="stop-color:#3b82f6;stop-opacity:0" />
    </radialGradient>
    
    <radialGradient id="orangeGlow">
      <stop offset="0%" style="stop-color:#fb923c;stop-opacity:0.4" />
      <stop offset="70%" style="stop-color:#ea580c;stop-opacity:0.1" />
      <stop offset="100%" style="stop-color:#ea580c;stop-opacity:0" />
    </radialGradient>
    
    <!-- Filter for glow effect -->
    <filter id="glow">
      <feGaussianBlur stdDeviation="4" result="coloredBlur"/>
      <feMerge>
        <feMergeNode in="coloredBlur"/>
        <feMergeNode in="SourceGraphic"/>
      </feMerge>
    </filter>
  </defs>
  
  <!-- Background -->
  <rect width="1200" height="700" fill="#0f172a"/>
  
  <!-- Background network pattern -->
  <g opacity="0.1">
    <path d="M 0 100 L 1200 150" stroke="#60a5fa" stroke-width="1"/>
    <path d="M 0 200 L 1200 180" stroke="#60a5fa" stroke-width="1"/>
    <path d="M 0 300 L 1200 320" stroke="#60a5fa" stroke-width="1"/>
    <path d="M 0 400 L 1200 380" stroke="#60a5fa" stroke-width="1"/>
    <path d="M 0 500 L 1200 550" stroke="#60a5fa" stroke-width="1"/>
    <path d="M 100 0 L 150 700" stroke="#60a5fa" stroke-width="1"/>
    <path d="M 300 0 L 280 700" stroke="#60a5fa" stroke-width="1"/>
    <path d="M 500 0 L 520 700" stroke="#60a5fa" stroke-width="1"/>
    <path d="M 700 0 L 680 700" stroke="#60a5fa" stroke-width="1"/>
    <path d="M 900 0 L 920 700" stroke="#60a5fa" stroke-width="1"/>
    <path d="M 1100 0 L 1080 700" stroke="#60a5fa" stroke-width="1"/>
  </g>
  
  <!-- Traditional Mainframe Section (Left) -->
  <g id="mainframe-section">
    <!-- Glow effect behind mainframe -->
    <circle cx="200" cy="350" r="150" fill="url(#glowGradient)"/>
    
    <!-- Mainframe representation -->
    <rect x="120" y="270" width="160" height="160" rx="10" fill="#1e293b" stroke="#475569" stroke-width="2"/>
    
    <!-- Server rack details -->
    <rect x="140" y="290" width="120" height="20" fill="#334155" stroke="#475569" stroke-width="1"/>
    <rect x="140" y="320" width="120" height="20" fill="#334155" stroke="#475569" stroke-width="1"/>
    <rect x="140" y="350" width="120" height="20" fill="#334155" stroke="#475569" stroke-width="1"/>
    <rect x="140" y="380" width="120" height="20" fill="#334155" stroke="#475569" stroke-width="1"/>
    
    <!-- LED indicators -->
    <circle cx="155" cy="300" r="3" fill="#ef4444" opacity="0.8"/>
    <circle cx="170" cy="300" r="3" fill="#f59e0b" opacity="0.8"/>
    <circle cx="155" cy="330" r="3" fill="#ef4444" opacity="0.8"/>
    <circle cx="170" cy="330" r="3" fill="#f59e0b" opacity="0.8"/>
    <circle cx="155" cy="360" r="3" fill="#ef4444" opacity="0.8"/>
    <circle cx="170" cy="360" r="3" fill="#f59e0b" opacity="0.8"/>
    
    <!-- Complex network nodes around mainframe -->
    <circle cx="100" cy="250" r="4" fill="#64748b"/>
    <circle cx="300" cy="280" r="4" fill="#64748b"/>
    <circle cx="80" cy="350" r="4" fill="#64748b"/>
    <circle cx="320" cy="380" r="4" fill="#64748b"/>
    <circle cx="150" cy="450" r="4" fill="#64748b"/>
    
    <path d="M 100 250 L 140 290 M 300 280 L 260 290 M 80 350 L 120 350 M 320 380 L 280 380 M 150 450 L 180 410" 
          stroke="#475569" stroke-width="1" opacity="0.5"/>
  </g>
  
  <!-- Modern Exadata Section (Right) -->
  <g id="exadata-section">
    <!-- Glow effect behind Exadata -->
    <circle cx="1000" cy="350" r="180" fill="url(#orangeGlow)"/>
    
    <!-- Modern server representation -->
    <g transform="translate(920, 270)">
      <!-- Sleek server design -->
      <rect x="0" y="0" width="160" height="160" rx="20" fill="url(#blueGradient)" filter="url(#glow)"/>
      
      <!-- Exadata cells pattern -->
      <rect x="20" y="20" width="30" height="30" rx="5" fill="#60a5fa" opacity="0.8"/>
      <rect x="55" y="20" width="30" height="30" rx="5" fill="#60a5fa" opacity="0.8"/>
      <rect x="90" y="20" width="30" height="30" rx="5" fill="#60a5fa" opacity="0.8"/>
      <rect x="125" y="20" width="15" height="30" rx="5" fill="#34d399" opacity="0.8"/>
      
      <rect x="20" y="55" width="30" height="30" rx="5" fill="#60a5fa" opacity="0.8"/>
      <rect x="55" y="55" width="30" height="30" rx="5" fill="#60a5fa" opacity="0.8"/>
      <rect x="90" y="55" width="30" height="30" rx="5" fill="#60a5fa" opacity="0.8"/>
      <rect x="125" y="55" width="15" height="30" rx="5" fill="#34d399" opacity="0.8"/>
      
      <rect x="20" y="90" width="30" height="30" rx="5" fill="#60a5fa" opacity="0.8"/>
      <rect x="55" y="90" width="30" height="30" rx="5" fill="#60a5fa" opacity="0.8"/>
      <rect x="90" y="90" width="30" height="30" rx="5" fill="#60a5fa" opacity="0.8"/>
      <rect x="125" y="90" width="15" height="30" rx="5" fill="#34d399" opacity="0.8"/>
      
      <!-- Performance indicator -->
      <rect x="20" y="130" width="120" height="10" rx="5" fill="#1e293b"/>
      <rect x="20" y="130" width="100" height="10" rx="5" fill="url(#greenGradient)"/>
    </g>
  </g>
  
  <!-- Data Flow Arrows -->
  <g id="data-flow">
    <!-- Main migration flow -->
    <path d="M 300 350 Q 600 300 900 350" stroke="url(#greenGradient)" stroke-width="4" fill="none" opacity="0.8" filter="url(#glow)"/>
    <path d="M 300 350 Q 600 400 900 350" stroke="#60a5fa" stroke-width="3" fill="none" opacity="0.6"/>
    
    <!-- Arrow heads -->
    <polygon points="895,345 905,350 895,355" fill="#34d399" opacity="0.8"/>
    
    <!-- Data particles animation -->
    <circle cx="350" cy="340" r="3" fill="#34d399" opacity="0.8">
      <animate attributeName="cx" from="300" to="900" dur="3s" repeatCount="indefinite"/>
      <animate attributeName="cy" from="350" to="350" dur="3s" repeatCount="indefinite"/>
    </circle>
    <circle cx="450" cy="330" r="3" fill="#60a5fa" opacity="0.8">
      <animate attributeName="cx" from="300" to="900" dur="3s" begin="0.5s" repeatCount="indefinite"/>
      <animate attributeName="cy" from="350" to="350" dur="3s" begin="0.5s" repeatCount="indefinite"/>
    </circle>
    <circle cx="550" cy="360" r="3" fill="#34d399" opacity="0.8">
      <animate attributeName="cx" from="300" to="900" dur="3s" begin="1s" repeatCount="indefinite"/>
      <animate attributeName="cy" from="350" to="350" dur="3s" begin="1s" repeatCount="indefinite"/>
    </circle>
  </g>
  
  <!-- Performance Metrics Visualization -->
  <g id="metrics" opacity="0.7">
    <!-- Cost reduction curve -->
    <path d="M 400 500 Q 500 480 600 520" stroke="#ef4444" stroke-width="2" fill="none" opacity="0.5"/>
    <path d="M 400 500 L 400 510" stroke="#ef4444" stroke-width="1" opacity="0.5"/>
    <path d="M 600 520 L 600 510" stroke="#ef4444" stroke-width="1" opacity="0.5"/>
    <polygon points="595,515 600,510 605,515" fill="#ef4444" opacity="0.5"/>
    
    <!-- Performance increase curve -->
    <path d="M 400 200 Q 500 180 600 140" stroke="#10b981" stroke-width="2" fill="none" opacity="0.5"/>
    <path d="M 400 200 L 400 190" stroke="#10b981" stroke-width="1" opacity="0.5"/>
    <path d="M 600 140 L 600 150" stroke="#10b981" stroke-width="1" opacity="0.5"/>
    <polygon points="595,145 600,140 605,145" fill="#10b981" opacity="0.5"/>
  </g>
  
  <!-- Decorative elements -->
  <g id="decorative">
    <!-- Speed lines -->
    <path d="M 500 320 L 700 320" stroke="#60a5fa" stroke-width="2" opacity="0.3"/>
    <path d="M 480 350 L 720 350" stroke="#60a5fa" stroke-width="2" opacity="0.3"/>
    <path d="M 500 380 L 700 380" stroke="#60a5fa" stroke-width="2" opacity="0.3"/>
    
    <!-- Tech circles -->
    <circle cx="600" cy="350" r="80" stroke="#3b82f6" stroke-width="1" fill="none" opacity="0.2"/>
    <circle cx="600" cy="350" r="120" stroke="#3b82f6" stroke-width="1" fill="none" opacity="0.1"/>
    
    <!-- Hexagon pattern around center -->
    <polygon points="580,330 620,330 640,360 620,390 580,390 560,360" 
             stroke="#60a5fa" stroke-width="1" fill="none" opacity="0.3"/>
  </g>
  
  <!-- Abstract chart elements in background -->
  <g id="charts" opacity="0.15">
    <rect x="50" y="100" width="20" height="60" fill="#3b82f6"/>
    <rect x="80" y="80" width="20" height="80" fill="#3b82f6"/>
    <rect x="110" y="120" width="20" height="40" fill="#3b82f6"/>
    
    <rect x="1070" y="540" width="20" height="40" fill="#10b981"/>
    <rect x="1100" y="520" width="20" height="60" fill="#10b981"/>
    <rect x="1130" y="500" width="20" height="80" fill="#10b981"/>
  </g>
</svg>