<svg viewBox="0 0 1600 1000" xmlns="http://www.w3.org/2000/svg">
  <defs>
    <!-- Gradients -->
    <linearGradient id="oracleRed" x1="0%" y1="0%" x2="100%" y2="100%">
      <stop offset="0%" style="stop-color:#f80000;stop-opacity:1" />
      <stop offset="100%" style="stop-color:#c21807;stop-opacity:1" />
    </linearGradient>
    
    <linearGradient id="modernBlue" x1="0%" y1="0%" x2="100%" y2="100%">
      <stop offset="0%" style="stop-color:#0066cc;stop-opacity:1" />
      <stop offset="100%" style="stop-color:#004499;stop-opacity:1" />
    </linearGradient>
    
    <linearGradient id="goldGradient" x1="0%" y1="0%" x2="100%" y2="100%">
      <stop offset="0%" style="stop-color:#ffd700;stop-opacity:1" />
      <stop offset="100%" style="stop-color:#ffb300;stop-opacity:1" />
    </linearGradient>
    
    <linearGradient id="greenGradient" x1="0%" y1="0%" x2="100%" y2="100%">
      <stop offset="0%" style="stop-color:#22c55e;stop-opacity:1" />
      <stop offset="100%" style="stop-color:#16a34a;stop-opacity:1" />
    </linearGradient>
    
    <linearGradient id="dataFlow" x1="0%" y1="0%" x2="100%" y2="0%">
      <stop offset="0%" style="stop-color:#0066cc;stop-opacity:0.2" />
      <stop offset="50%" style="stop-color:#0066cc;stop-opacity:0.8" />
      <stop offset="100%" style="stop-color:#0066cc;stop-opacity:0.2" />
    </linearGradient>
    
    <!-- Filters -->
    <filter id="shadow" x="-50%" y="-50%" width="200%" height="200%">
      <feGaussianBlur in="SourceAlpha" stdDeviation="4"/>
      <feOffset dx="0" dy="4" result="offsetblur"/>
      <feFlood flood-color="#000000" flood-opacity="0.15"/>
      <feComposite in2="offsetblur" operator="in"/>
      <feMerge>
        <feMergeNode/>
        <feMergeNode in="SourceGraphic"/>
      </feMerge>
    </filter>
    
    <filter id="glow">
      <feGaussianBlur stdDeviation="3" result="coloredBlur"/>
      <feMerge>
        <feMergeNode in="coloredBlur"/>
        <feMergeNode in="SourceGraphic"/>
      </feMerge>
    </filter>
    
    <!-- Arrow markers -->
    <marker id="arrowBlue" markerWidth="10" markerHeight="10" refX="9" refY="3" orient="auto" markerUnits="strokeWidth">
      <polygon points="0 0, 10 3, 0 6" fill="#0066cc"/>
    </marker>
  </defs>
  
  <!-- Background -->
  <rect width="1600" height="1000" fill="#f8fafc"/>
  
  <!-- Background grid pattern -->
  <pattern id="grid" x="0" y="0" width="50" height="50" patternUnits="userSpaceOnUse">
    <rect width="50" height="50" fill="none" stroke="#e5e7eb" stroke-width="0.5"/>
  </pattern>
  <rect width="1600" height="1000" fill="url(#grid)" opacity="0.3"/>
  
  <!-- Title -->
  <text x="800" y="60" text-anchor="middle" font-family="Arial, sans-serif" font-size="36" font-weight="bold" fill="#1e293b">
    Oracleデータベースのゼロダウンタイム移行
  </text>
  <text x="800" y="95" text-anchor="middle" font-family="Arial, sans-serif" font-size="22" fill="#64748b">
    Oracle GoldenGateによる11gから19cへの移行
  </text>
  
  <!-- Business Continuity Line -->
  <g id="business-continuity">
    <path d="M 200 150 L 1400 150" stroke="#22c55e" stroke-width="4" fill="none"/>
    
    <!-- 24/7 Badge -->
    <g transform="translate(750, 130)">
      <circle cx="0" cy="0" r="30" fill="url(#greenGradient)" filter="url(#shadow)"/>
      <text x="0" y="5" text-anchor="middle" font-family="Arial Black, sans-serif" font-size="18" fill="white">
        24/7
      </text>
    </g>
    
    <!-- Business Applications Icons -->
    <g id="business-apps">
      <!-- Desktop -->
      <g transform="translate(300, 130)">
        <rect x="-15" y="-10" width="30" height="20" rx="2" fill="#64748b"/>
        <rect x="-10" y="-7" width="20" height="12" fill="#e2e8f0"/>
        <rect x="-5" y="5" width="10" height="3" fill="#64748b"/>
      </g>
      
      <!-- Mobile -->
      <g transform="translate(500, 130)">
        <rect x="-8" y="-12" width="16" height="24" rx="2" fill="#64748b"/>
        <rect x="-6" y="-8" width="12" height="16" fill="#e2e8f0"/>
      </g>
      
      <!-- Chart -->
      <g transform="translate(900, 130)">
        <rect x="-15" y="-10" width="30" height="20" rx="2" fill="#64748b"/>
        <rect x="-10" y="2" width="4" height="5" fill="#22c55e"/>
        <rect x="-3" y="-2" width="4" height="9" fill="#3b82f6"/>
        <rect x="4" y="-5" width="4" height="12" fill="#f59e0b"/>
      </g>
      
      <!-- Cloud -->
      <g transform="translate(1100, 130)">
        <ellipse cx="0" cy="0" rx="20" ry="12" fill="#64748b"/>
        <ellipse cx="-8" cy="-5" rx="12" ry="10" fill="#64748b"/>
        <ellipse cx="8" cy="-5" rx="12" ry="10" fill="#64748b"/>
      </g>
    </g>
    
    <text x="800" y="190" text-anchor="middle" font-family="Arial, sans-serif" font-size="14" fill="#22c55e" font-weight="bold">
      継続的なビジネス運用
    </text>
  </g>
  
  <!-- Oracle 11g Database (Source) -->
  <g id="oracle-11g" transform="translate(200, 350)">
    <rect x="0" y="0" width="250" height="200" rx="15" fill="#e0e7ff" stroke="#6366f1" stroke-width="2" filter="url(#shadow)"/>
    
    <!-- Header -->
    <rect x="0" y="0" width="250" height="50" rx="15" fill="#6366f1"/>
    <text x="125" y="32" text-anchor="middle" font-family="Arial, sans-serif" font-size="20" fill="white" font-weight="bold">
      Oracle 11g
    </text>
    
    <!-- Database Icon -->
    <g transform="translate(75, 80)">
      <ellipse cx="50" cy="20" rx="45" ry="15" fill="#94a3b8"/>
      <rect x="5" y="20" width="90" height="60" fill="#94a3b8"/>
      <ellipse cx="50" cy="80" rx="45" ry="15" fill="#94a3b8"/>
      <path d="M 5 20 L 5 80 M 95 20 L 95 80" stroke="#94a3b8" stroke-width="2" fill="none"/>
      <text x="50" y="55" text-anchor="middle" font-family="Arial, sans-serif" font-size="24" fill="white" font-weight="bold">
        11g
      </text>
    </g>
    
    <text x="125" y="180" text-anchor="middle" font-family="Arial, sans-serif" font-size="14" fill="#64748b">
      移行元データベース
    </text>
  </g>
  
  <!-- Oracle 19c Database (Target) -->
  <g id="oracle-19c" transform="translate(1150, 350)">
    <rect x="0" y="0" width="250" height="200" rx="15" fill="#e0f2fe" stroke="#0ea5e9" stroke-width="2" filter="url(#shadow)"/>
    
    <!-- Header -->
    <rect x="0" y="0" width="250" height="50" rx="15" fill="url(#modernBlue)"/>
    <text x="125" y="32" text-anchor="middle" font-family="Arial, sans-serif" font-size="20" fill="white" font-weight="bold">
      Oracle 19c
    </text>
    
    <!-- Database Icon (Modern) -->
    <g transform="translate(75, 80)">
      <ellipse cx="50" cy="20" rx="45" ry="15" fill="#0ea5e9" filter="url(#glow)"/>
      <rect x="5" y="20" width="90" height="60" fill="#0ea5e9"/>
      <ellipse cx="50" cy="80" rx="45" ry="15" fill="#0ea5e9"/>
      <path d="M 5 20 L 5 80 M 95 20 L 95 80" stroke="#0ea5e9" stroke-width="2" fill="none"/>
      <text x="50" y="55" text-anchor="middle" font-family="Arial, sans-serif" font-size="24" fill="white" font-weight="bold">
        19c
      </text>
    </g>
    
    <text x="125" y="180" text-anchor="middle" font-family="Arial, sans-serif" font-size="14" fill="#64748b">
      移行先データベース
    </text>
    
    <!-- Performance Indicator -->
    <g transform="translate(170, 100)">
      <rect x="0" y="0" width="70" height="40" rx="20" fill="url(#greenGradient)" filter="url(#shadow)"/>
      <text x="35" y="25" text-anchor="middle" font-family="Arial, sans-serif" font-size="12" fill="white" font-weight="bold">
        +30%
      </text>
      <path d="M 20 15 L 25 10 L 30 15" stroke="white" stroke-width="2" fill="none" stroke-linecap="round"/>
    </g>
  </g>
  
  <!-- Oracle GoldenGate (Center) -->
  <g id="goldengate" transform="translate(650, 380)">
    <rect x="0" y="0" width="300" height="140" rx="20" fill="url(#goldGradient)" filter="url(#shadow)"/>
    
    <!-- GoldenGate Logo/Icon -->
    <g transform="translate(150, 40)">
      <circle cx="0" cy="0" r="35" fill="#ffffff" opacity="0.9"/>
      <path d="M -20 0 Q 0 -15 20 0 Q 0 15 -20 0" fill="#ffb300" opacity="0.8"/>
      <circle cx="0" cy="0" r="10" fill="#ff6b00"/>
    </g>
    
    <text x="150" y="110" text-anchor="middle" font-family="Arial, sans-serif" font-size="22" fill="#7c2d12" font-weight="bold">
      Oracle GoldenGate
    </text>
  </g>
  
  <!-- Bidirectional Data Flow -->
  <g id="data-flows">
    <!-- Left to GoldenGate -->
    <path d="M 450 450 L 650 450" stroke="url(#dataFlow)" stroke-width="6" fill="none">
      <animate attributeName="stroke-dasharray" values="0 30;30 0" dur="2s" repeatCount="indefinite"/>
    </path>
    
    <!-- GoldenGate to Right -->
    <path d="M 950 450 L 1150 450" stroke="url(#dataFlow)" stroke-width="6" fill="none">
      <animate attributeName="stroke-dasharray" values="0 30;30 0" dur="2s" repeatCount="indefinite"/>
    </path>
    
    <!-- Right to GoldenGate (Reverse Sync) -->
    <path d="M 1150 480 L 950 480" stroke="url(#dataFlow)" stroke-width="4" fill="none" opacity="0.6">
      <animate attributeName="stroke-dasharray" values="0 30;30 0" dur="2s" begin="1s" repeatCount="indefinite"/>
    </path>
    
    <!-- GoldenGate to Left (Reverse Sync) -->
    <path d="M 650 480 L 450 480" stroke="url(#dataFlow)" stroke-width="4" fill="none" opacity="0.6">
      <animate attributeName="stroke-dasharray" values="0 30;30 0" dur="2s" begin="1s" repeatCount="indefinite"/>
    </path>
    
    <!-- Data particles animation -->
    <circle cx="500" cy="450" r="4" fill="#0066cc" opacity="0.8">
      <animate attributeName="cx" from="450" to="650" dur="2s" repeatCount="indefinite"/>
    </circle>
    <circle cx="1000" cy="450" r="4" fill="#0066cc" opacity="0.8">
      <animate attributeName="cx" from="950" to="1150" dur="2s" repeatCount="indefinite"/>
    </circle>
  </g>
  
  <!-- Data Integrity Shield -->
  <g id="data-integrity" transform="translate(1050, 420)">
    <path d="M 0 0 L 20 10 L 20 35 L 0 45 L -20 35 L -20 10 Z" fill="#22c55e" opacity="0.9" filter="url(#glow)"/>
    <path d="M 0 10 L 0 25 M -7 17 L 0 25 L 10 15" stroke="white" stroke-width="3" fill="none" stroke-linecap="round" stroke-linejoin="round"/>
  </g>
  
  <!-- Real-time Sync Label -->
  <text x="800" y="430" text-anchor="middle" font-family="Arial, sans-serif" font-size="16" fill="#0066cc" font-weight="bold">
    リアルタイム双方向レプリケーション
  </text>
  
  <!-- Migration Phases -->
  <g id="migration-phases" transform="translate(300, 700)">
    <text x="500" y="0" text-anchor="middle" font-family="Arial, sans-serif" font-size="20" font-weight="bold" fill="#1e293b">
      移行フェーズ
    </text>
    
    <!-- Phase 1: Assessment & Planning -->
    <g transform="translate(0, 30)">
      <rect x="0" y="0" width="280" height="120" rx="10" fill="#fef3c7" stroke="#f59e0b" stroke-width="2" filter="url(#shadow)"/>
      
      <circle cx="140" cy="40" r="25" fill="#f59e0b"/>
      <circle cx="135" cy="35" r="12" fill="none" stroke="white" stroke-width="3"/>
      <circle cx="145" cy="45" r="5" fill="white"/>
      
      <text x="140" y="85" text-anchor="middle" font-family="Arial, sans-serif" font-size="16" font-weight="bold" fill="#92400e">
        Phase 1
      </text>
      <text x="140" y="105" text-anchor="middle" font-family="Arial, sans-serif" font-size="14" fill="#78350f">
        評価と計画
      </text>
    </g>
    
    <!-- Arrow -->
    <path d="M 290 90 L 350 90" stroke="#94a3b8" stroke-width="3" fill="none" marker-end="url(#arrowBlue)"/>
    
    <!-- Phase 2: Implementation -->
    <g transform="translate(360, 30)">
      <rect x="0" y="0" width="280" height="120" rx="10" fill="#dbeafe" stroke="#3b82f6" stroke-width="2" filter="url(#shadow)"/>
      
      <g transform="translate(140, 40)">
        <circle cx="0" cy="0" r="25" fill="#3b82f6"/>
        <circle cx="0" cy="0" r="18" fill="none" stroke="white" stroke-width="3" stroke-dasharray="4,2">
          <animateTransform attributeName="transform" type="rotate" from="0 0 0" to="360 0 0" dur="4s" repeatCount="indefinite"/>
        </circle>
        <circle cx="0" cy="0" r="8" fill="white"/>
      </g>
      
      <text x="140" y="85" text-anchor="middle" font-family="Arial, sans-serif" font-size="16" font-weight="bold" fill="#1e40af">
        Phase 2
      </text>
      <text x="140" y="105" text-anchor="middle" font-family="Arial, sans-serif" font-size="14" fill="#2563eb">
        実装
      </text>
    </g>
    
    <!-- Arrow -->
    <path d="M 650 90 L 710 90" stroke="#94a3b8" stroke-width="3" fill="none" marker-end="url(#arrowBlue)"/>
    
    <!-- Phase 3: Cutover & Validation -->
    <g transform="translate(720, 30)">
      <rect x="0" y="0" width="280" height="120" rx="10" fill="#dcfce7" stroke="#22c55e" stroke-width="2" filter="url(#shadow)"/>
      
      <g transform="translate(140, 40)">
        <circle cx="0" cy="0" r="25" fill="#22c55e"/>
        <path d="M -10 0 L -3 7 L 12 -8" stroke="white" stroke-width="4" fill="none" stroke-linecap="round" stroke-linejoin="round"/>
      </g>
      
      <text x="140" y="85" text-anchor="middle" font-family="Arial, sans-serif" font-size="16" font-weight="bold" fill="#14532d">
        Phase 3
      </text>
      <text x="140" y="105" text-anchor="middle" font-family="Arial, sans-serif" font-size="14" fill="#15803d">
        カットオーバーと検証
      </text>
    </g>
  </g>
  
  <!-- Key Features Box -->
  <g id="key-features" transform="translate(100, 600)">
    <rect x="0" y="0" width="200" height="150" rx="10" fill="#f1f5f9" stroke="#e2e8f0" stroke-width="2" filter="url(#shadow)"/>
    
    <text x="100" y="30" text-anchor="middle" font-family="Arial, sans-serif" font-size="16" font-weight="bold" fill="#1e293b">
      主なメリット
    </text>
    
    <g transform="translate(20, 50)">
      <circle cx="10" cy="10" r="5" fill="#22c55e"/>
      <text x="25" y="15" font-family="Arial, sans-serif" font-size="13" fill="#475569">
        ゼロダウンタイム
      </text>
    </g>
    
    <g transform="translate(20, 80)">
      <circle cx="10" cy="10" r="5" fill="#22c55e"/>
      <text x="25" y="15" font-family="Arial, sans-serif" font-size="13" fill="#475569">
        データ整合性
      </text>
    </g>
    
    <g transform="translate(20, 110)">
      <circle cx="10" cy="10" r="5" fill="#22c55e"/>
      <text x="25" y="15" font-family="Arial, sans-serif" font-size="13" fill="#475569">
        30%の性能向上
      </text>
    </g>
  </g>
  
  <!-- Decorative elements -->
  <g id="decorative" opacity="0.1">
    <circle cx="100" cy="300" r="50" fill="#3b82f6"/>
    <circle cx="1500" cy="400" r="70" fill="#22c55e"/>
    <circle cx="1400" cy="700" r="40" fill="#f59e0b"/>
  </g>
</svg>